Coordinates
version=1
nRows=21
nColumns=22
inDegrees=yes

Units are S.I. units (second, meters, Newtons, ...)
If the header above contains a line with 'inDegrees', this indicates whether rotational values are in degrees (yes) or radians (no).

endheader
time	pelvis_tilt	pelvis_list	pelvis_rotation	pelvis_tx	pelvis_ty	pelvis_tz	hip_flexion_r	hip_adduction_r	hip_rotation_r	knee_angle_r	ankle_angle_r	subtalar_angle_r	hip_flexion_l	hip_adduction_l	hip_rotation_l	knee_angle_l	ankle_angle_l	subtalar_angle_l	lumbar_extension	lumbar_bending	lumbar_rotation
      4.62000000	      1.54399090	     -3.78100720	     16.43965282	      1.05453140	      0.94066669	     -0.33882566	     24.67310547	     -1.50662873	    -10.14810492	    -18.56291373	     -0.64163890	      3.18157586	    -12.75297165	     -5.67229430	     19.57253338	    -18.62863507	     17.81740389	      6.32762769	     -2.19408017	      2.88722562	    -11.26102005
      4.63000000	      1.52920010	     -4.00184123	     16.57237494	      1.06376117	      0.94007450	     -0.33747960	     24.89248917	     -1.25462257	    -10.45516478	    -19.58278637	     -1.61265654	      3.22620684	    -12.73638648	     -6.04128050	     19.63918315	    -19.41564020	     17.52536575	      7.00051745	     -1.96470234	      3.09437632	    -11.27745539
      4.64000000	      1.47878318	     -4.20311008	     16.67485116	      1.07285258	      0.93964119	     -0.33615514	     25.15731338	     -1.03340972	    -10.72569108	    -20.63550940	     -2.40180241	      3.26977119	    -12.63720144	     -6.36413980	     19.57900525	    -20.25044818	     17.11162822	      7.70633904	     -1.71472811	      3.28022294	    -11.27737819
      4.65000000	      1.41819226	     -4.40909738	     16.73953016	      1.08186804	      0.93937946	     -0.33484113	     25.42154424	     -0.80209775	    -10.98718137	    -21.68003179	     -2.95359681	      3.27113090	    -12.44479363	     -6.65736051	     19.41733084	    -21.20347841	     16.60600584	      8.38061664	     -1.45699782	      3.47667947	    -11.23761515
      4.66000000	      1.36787146	     -4.56623145	     16.75928002	      1.09084148	      0.93937604	     -0.33352465	     25.60695032	     -0.57821465	    -11.14863173	    -22.64148152	     -3.28523656	      3.17966672	    -12.18540434	     -6.86532054	     19.20800846	    -22.29390874	     15.93046649	      9.32415923	     -1.22874482	      3.62813927	    -11.18230807
      4.67000000	      1.32792255	     -4.72336468	     16.74340815	      1.09975440	      0.93955643	     -0.33220730	     25.72708126	     -0.32479161	    -11.29515216	    -23.52215509	     -3.37311529	      3.03608328	    -11.80706166	     -7.03142882	     18.94429369	    -23.59121528	     15.18737253	     10.20886644	     -1.01584856	      3.78808461	    -11.10022402
      4.68000000	      1.30580979	     -4.86691664	     16.69027185	      1.10865499	      0.93996671	     -0.33087588	     25.73337867	     -0.03639694	    -11.39327637	    -24.26312242	     -3.21397030	      2.83665038	    -11.35157192	     -7.15473456	     18.65958647	    -25.03956843	     14.31873050	     11.24386876	     -0.82544868	      3.93903514	    -10.97603176
      4.69000000	      1.30066364	     -4.98045614	     16.62380910	      1.11742792	      0.94058596	     -0.32955385	     25.62536854	      0.26202849	    -11.43646225	    -24.86074449	     -2.88943309	      2.62738072	    -10.79229974	     -7.22677439	     18.34095005	    -26.66499085	     13.40332097	     12.35549888	     -0.67472205	      4.06587585	    -10.85855976
      4.70000000	      1.27322716	     -5.06318512	     16.56093585	      1.12601619	      0.94135089	     -0.32826978	     25.45886629	      0.53560813	    -11.47737854	    -25.33577419	     -2.47181026	      2.44661313	    -10.08792100	     -7.24293895	     18.01357700	    -28.45435733	     12.44318779	     13.46951558	     -0.52362105	      4.15499105	    -10.74975650
      4.71000000	      1.26332901	     -5.12895682	     16.51492333	      1.13442565	      0.94227888	     -0.32701236	     25.17823335	      0.81486187	    -11.49823237	    -25.65669800	     -1.94247036	      2.28367821	     -9.28530261	     -7.24656840	     17.66210912	    -30.38054407	     11.51770224	     14.68244601	     -0.40998982	      4.22999887	    -10.65716518
      4.72000000	      1.24828479	     -5.18636513	     16.49496154	      1.14258827	      0.94329125	     -0.32577839	     24.84089943	      1.08422585	    -11.53510251	    -25.86577646	     -1.39281659	      2.15399637	     -8.35093217	     -7.24554097	     17.29344450	    -32.44432365	     10.64672823	     15.81379601	     -0.31452809	      4.29367028	    -10.59252080
      4.73000000	      1.23690800	     -5.25307090	     16.50637300	      1.15049427	      0.94435303	     -0.32456179	     24.45090586	      1.36057109	    -11.59331790	    -25.97089257	     -0.84204709	      2.04572569	     -7.30027224	     -7.26912918	     16.91239334	    -34.61805231	      9.85881557	     16.82330969	     -0.24058519	      4.36693236	    -10.55639207
      4.74000000	      1.23532343	     -5.34409652	     16.54896311	      1.15813610	      0.94542472	     -0.32334148	     24.01987877	      1.65849694	    -11.68113645	    -25.98780918	     -0.31672557	      1.95075259	     -6.15021478	     -7.34205417	     16.51948090	    -36.86619510	      9.15926783	     17.60105582	     -0.19212532	      4.46472364	    -10.54332078
      4.75000000	      1.23947195	     -5.46813219	     16.61522772	      1.16551261	      0.94646431	     -0.32210087	     23.56945813	      1.98859791	    -11.78969183	    -25.93630656	      0.17255478	      1.85412935	     -4.91581521	     -7.47393493	     16.12694494	    -39.14069764	      8.55727189	     18.13336986	     -0.15981219	      4.59705931	    -10.53760816
      4.76000000	      1.28260243	     -5.65227678	     16.68486731	      1.17267590	      0.94749016	     -0.32079855	     23.06552228	      2.40185283	    -11.90157231	    -25.79628934	      0.59906896	      1.77153126	     -3.66183530	     -7.70835936	     15.71486866	    -41.37296003	      8.06468614	     18.25317772	     -0.16972300	      4.80044357	    -10.52171001
      4.77000000	      1.25996312	     -5.83211015	     16.76746404	      1.17954447	      0.94836449	     -0.31949273	     22.64760095	      2.77830340	    -12.04351547	    -25.65813022	      1.00374288	      1.62347733	     -2.29573233	     -7.93036819	     15.34967652	    -43.54025535	      7.66706743	     18.20470525	     -0.12925534	      4.97550998	    -10.50377995
      4.78000000	      1.24944364	     -6.06129338	     16.83922202	      1.18622545	      0.94918059	     -0.31812824	     22.21603757	      3.22161303	    -12.17789344	    -25.45769866	      1.34651452	      1.44649460	     -0.93110732	     -8.22562931	     14.98980222	    -45.56385228	      7.39560572	     17.72208441	     -0.09838816	      5.20257112	    -10.46187758
      4.79000000	      1.23260010	     -6.30954046	     16.89530398	      1.19273177	      0.94993309	     -0.31674108	     21.79032520	      3.69246300	    -12.29653245	    -25.21798628	      1.63969142	      1.23173964	      0.41927440	     -8.54422987	     14.65616391	    -47.39907497	      7.25326844	     16.81392380	     -0.06228384	      5.44641632	    -10.38737119
      4.80000000	      1.21445169	     -6.56406760	     16.91989189	      1.19908063	      0.95064308	     -0.31532994	     21.36136270	      4.18417321	    -12.37930211	    -24.94054001	      1.89170613	      0.99651436	      1.72545691	     -8.86846607	     14.33893497	    -49.01134380	      7.26397163	     15.58812445	     -0.02989822	      5.69609621	    -10.26846503
      4.81000000	      1.19516702	     -6.80519640	     16.89680335	      1.20527069	      0.95131968	     -0.31390224	     20.93631271	      4.67538694	    -12.41792855	    -24.65357440	      2.11051416	      0.74809157	      2.96325728	     -9.16970620	     14.02901323	    -50.37779031	      7.45132495	     14.11443793	     -0.00996461	      5.93372687	    -10.08959006
      4.82000000	      1.16364024	     -7.02701547	     16.84673992	      1.21128953	      0.95197585	     -0.31250601	     20.51186999	      5.15033552	    -12.41204386	    -24.33673303	      2.29838754	      0.51246088	      4.14069673	     -9.42312268	     13.76516356	    -51.48956853	      7.77525779	     12.53993896	      0.01129907	      6.15033109	     -9.88651747
